HIERARCHY
ROOT SpineBase
{
  OFFSET 0.000000 0.000000 0.000000
  CHANNELS 6 Xposition Yposition Zposition Zrotation Xrotation Yrotation
  JOINT SpineMid
  {
    OFFSET 0.000000 32.063982 0.000000
    CHANNELS 3 Zrotation Xrotation Yrotation
    JOINT SpineShoulder
    {
      OFFSET 0.111874 23.749097 -0.760310
      CHANNELS 3 Zrotation Xrotation Yrotation
      JOINT Neck
      {
        OFFSET 0.084379 7.837701 -0.591195
        CHANNELS 3 Zrotation Xrotation Yrotation
        JOINT Head
        {
          OFFSET 2.247027 12.058942 2.093802
          CHANNELS 3 Zrotation Xrotation Yrotation
          End Site
          {
            OFFSET 0 0 0
          }
        }
      }
      JOINT ShoulderLeft
      {
        OFFSET -15.724578 -3.673545 -6.300499
        CHANNELS 3 Zrotation Xrotation Yrotation
        JOINT ElbowLeft
        {
          OFFSET -5.601710 -26.666938 -2.244272
          CHANNELS 3 Zrotation Xrotation Yrotation
          JOINT WristLeft
          {
            OFFSET -0.786046 -21.260465 -6.351899
            CHANNELS 3 Zrotation Xrotation Yrotation
            JOINT HandLeft
            {
              OFFSET 0.169405 -7.478315 -2.841361
              CHANNELS 3 Zrotation Xrotation Yrotation
              JOINT HandTipLeft
              {
                OFFSET 0.855724 -7.957846 -0.666654
                CHANNELS 3 Zrotation Xrotation Yrotation
                End Site
                {
                  OFFSET 0 0 0
                }
              }
              JOINT ThumbLeft
              {
                OFFSET 3.606206 0.370786 -1.328597
                CHANNELS 3 Zrotation Xrotation Yrotation
                End Site
                {
                  OFFSET 0 0 0
                }
              }
            }
          }
        }
      }
      JOINT ShoulderRight
      {
        OFFSET 17.118720 -3.969212 5.350249
        CHANNELS 3 Zrotation Xrotation Yrotation
        JOINT ElbowRight
        {
          OFFSET 4.469503 -27.894209 2.273607
          CHANNELS 3 Zrotation Xrotation Yrotation
          JOINT WristRight
          {
            OFFSET 3.537665 -20.894334 -2.303730
            CHANNELS 3 Zrotation Xrotation Yrotation
            JOINT HandRight
            {
              OFFSET 0.443575 -2.461880 -1.514240
              CHANNELS 3 Zrotation Xrotation Yrotation
              JOINT HandTipRight
              {
                OFFSET 2.445294 -8.700408 -0.563824
                CHANNELS 3 Zrotation Xrotation Yrotation
                End Site
                {
                  OFFSET 0 0 0
                }
              }
              JOINT ThumbRight
              {
                OFFSET 4.173796 4.152754 -1.929750
                CHANNELS 3 Zrotation Xrotation Yrotation
                End Site
                {
                  OFFSET 0 0 0
                }
              }
            }
          }
        }
      }
    }
  }
  JOINT HipLeft
  {
    OFFSET -6.766684 1.200829 -6.208166
    CHANNELS 3 Zrotation Xrotation Yrotation
    JOINT KneeLeft
    {
      OFFSET -2.750976 -33.182365 1.095232
      CHANNELS 3 Zrotation Xrotation Yrotation
      JOINT AnkleLeft
      {
        OFFSET 0.165916 -36.019551 10.744781
        CHANNELS 3 Zrotation Xrotation Yrotation
        JOINT FootLeft
        {
          OFFSET 0.413317 -7.823937 -5.716377
          CHANNELS 3 Zrotation Xrotation Yrotation
          End Site
          {
            OFFSET 0 0 0
          }
        }
      }
    }
  }
  JOINT HipRight
  {
    OFFSET 7.676142 0.522664 -1.374374
    CHANNELS 3 Zrotation Xrotation Yrotation
    JOINT KneeRight
    {
      OFFSET 5.781102 -33.704595 -1.901284
      CHANNELS 3 Zrotation Xrotation Yrotation
      JOINT AnkleRight
      {
        OFFSET 9.188924 -36.486098 7.228910
        CHANNELS 3 Zrotation Xrotation Yrotation
        JOINT FootRight
        {
          OFFSET 3.392308 -2.823847 -13.741247
          CHANNELS 3 Zrotation Xrotation Yrotation
          End Site
          {
            OFFSET 0 0 0
          }
        }
      }
    }
  }
}
MOTION
Frames: 7
Frame Time: 0.033333
-36.848332 61.287596 339.110265 14.898223 -7.923353 -18.732845 -1.236504 -0.278101 20.308279 -0.151902 -0.346333 0.679159 -0.483247 19.669279 -7.565869 0.000000 0.000000 0.000000 -24.906000 12.781747 2.011492 52.775301 -16.199107 -4.246196 -14.791721 -34.077273 14.040815 13.365657 33.944800 -9.890382 0.000000 0.000000 0.000000 0.000000 0.000000 0.000000 -2.810812 9.450823 -0.723693 155.853237 -10.282559 -4.871270 119.245599 39.086527 66.989943 142.751000 66.966574 62.402894 0.000000 0.000000 0.000000 0.000000 0.000000 0.000000 -28.774946 -3.251789 19.717359 17.178534 -4.144048 1.379377 -1.454936 2.428744 -2.950073 0.000000 0.000000 0.000000 -18.341283 1.749894 20.282410 -1.860575 -0.028229 -0.860979 14.319086 7.901707 -29.183459 0.000000 0.000000 0.000000
-35.769032 60.268711 339.352572 14.503496 -7.879532 -20.802287 -1.300465 -0.490758 22.350639 -0.326255 -0.236795 0.640213 0.034374 22.096594 -8.183035 0.000000 0.000000 0.000000 -25.233974 13.078086 2.230889 51.344603 -17.840209 -3.018755 -13.249690 -31.433873 12.291862 5.170871 33.972443 -4.007560 0.000000 0.000000 0.000000 0.000000 0.000000 0.000000 -1.302978 9.074589 -0.796879 169.625704 -19.211311 44.339901 108.281802 -7.558696 71.681345 110.607115 75.539708 64.690106 0.000000 0.000000 0.000000 0.000000 0.000000 0.000000 -29.935406 -4.584694 21.377598 18.455119 -4.881312 1.338642 -1.311505 2.346223 -2.637013 0.000000 0.000000 0.000000 -19.729266 1.349231 22.500614 -0.506184 -0.905212 -1.178630 14.365412 7.141085 -30.121474 0.000000 0.000000 0.000000
-34.952990 62.006043 339.300951 12.558964 -7.042376 -24.378367 -0.962234 -0.701311 25.644046 -0.700047 -0.108974 0.538905 -0.537114 24.057755 -7.656356 0.000000 0.000000 0.000000 -22.304017 11.514738 1.880055 42.346803 -17.995788 -2.516657 -10.334776 -24.561047 7.591323 -3.799840 26.366821 2.717517 0.000000 0.000000 0.000000 0.000000 0.000000 0.000000 1.310231 8.128423 -0.741124 -174.187358 -5.543173 -144.377288 -93.827295 -0.658008 -115.438423 21.606304 83.863253 108.019453 0.000000 0.000000 0.000000 0.000000 0.000000 0.000000 -27.595350 -6.254148 24.282033 17.192002 -4.314097 0.899299 -0.439098 1.457781 -1.997173 0.000000 0.000000 0.000000 -18.656849 0.511316 25.817372 -0.451508 -0.951179 -1.338588 13.271316 5.743480 -25.462508 0.000000 0.000000 0.000000
-34.573173 65.840059 339.110470 9.096918 -5.558102 -27.846060 -0.441970 -0.646932 28.645000 -0.707752 0.038295 0.379134 -2.149781 25.088810 -6.116193 0.000000 0.000000 0.000000 -15.747404 11.125800 0.559459 26.243809 -18.537938 -0.327980 -5.474215 -17.655320 2.625210 -7.473284 18.903485 4.472354 0.000000 0.000000 0.000000 0.000000 0.000000 0.000000 4.484278 6.591154 -0.478224 -166.603270 -18.677395 -108.470155 -100.575754 35.156536 -126.202959 -62.184005 58.097387 76.734037 0.000000 0.000000 0.000000 0.000000 0.000000 0.000000 -22.024402 -5.862535 27.419308 12.219347 -4.054649 0.043292 2.010322 0.574351 -0.855173 0.000000 0.000000 0.000000 -14.355795 -0.145136 28.757156 -1.835378 -0.063949 -1.256152 10.050144 -1.486611 -21.160754 0.000000 0.000000 0.000000
-34.608303 70.852127 338.826898 5.513938 -3.382154 -30.560406 0.218052 -0.429102 30.941750 -0.802068 0.299883 0.211898 -4.072010 23.721234 -4.138663 0.000000 0.000000 0.000000 -10.694764 9.710719 -0.312521 9.503984 -18.734299 1.382591 4.953127 -15.787474 -3.039895 -16.750094 17.116606 8.586841 0.000000 0.000000 0.000000 0.000000 0.000000 0.000000 7.310321 4.530466 0.033531 -127.378972 -45.127789 -80.541270 23.037347 26.279549 31.422883 -72.635086 54.569214 108.036425 0.000000 0.000000 0.000000 0.000000 0.000000 0.000000 -15.462704 -3.796387 30.016658 5.776637 -4.743912 -0.876617 4.347649 0.110794 0.581419 0.000000 0.000000 0.000000 -8.135971 -0.720324 30.850524 -4.607119 1.636322 -0.892743 5.896921 -12.592180 -16.827410 0.000000 0.000000 0.000000
-34.367950 74.260579 338.471064 3.135877 -1.899773 -32.001305 0.553816 -0.335656 32.187272 -0.794254 0.393414 0.107596 -6.611176 25.055740 -2.744079 0.000000 0.000000 0.000000 -7.759957 8.742927 -0.641034 4.588282 -16.923959 1.779147 8.733847 -25.245585 -4.184581 -21.979520 22.903167 12.853280 0.000000 0.000000 0.000000 0.000000 0.000000 0.000000 8.694000 3.326693 0.408079 -69.030651 -46.082829 -33.746807 15.763247 -16.747107 -9.121232 -44.941544 54.033186 53.764039 0.000000 0.000000 0.000000 0.000000 0.000000 0.000000 -11.310994 -2.386918 31.463637 2.038389 -5.048215 -1.495940 5.506262 -0.135122 1.529064 0.000000 0.000000 0.000000 -3.457911 -1.249585 31.886767 -6.887925 3.766878 -0.317353 6.299277 -13.105311 -11.599545 0.000000 0.000000 0.000000
-33.722946 76.729481 338.049073 2.035562 -0.685125 -28.763502 0.430986 -0.456981 28.863547 -0.737686 0.400196 0.046298 -7.658942 27.046094 -2.329369 0.000000 0.000000 0.000000 -4.674997 9.049989 -1.256166 3.519475 -16.414002 2.053812 3.444708 -34.239379 -2.293175 -24.766179 31.017248 16.756728 0.000000 0.000000 0.000000 0.000000 0.000000 0.000000 9.853463 2.112416 0.704264 -48.162663 -37.439121 -18.326620 10.921698 -23.770833 -8.261927 -14.482245 46.725835 17.381241 0.000000 0.000000 0.000000 0.000000 0.000000 0.000000 -9.545985 -0.387727 28.209169 -0.320890 -6.586381 -1.947841 5.891020 0.284993 2.454798 0.000000 0.000000 0.000000 -0.903811 -3.724469 28.238688 -7.645656 7.065288 0.619821 7.848050 -10.000833 -7.229389 0.000000 0.000000 0.000000
